<svg id="Layer_1" data-name="Layer 1" xmlns="http://www.w3.org/2000/svg" viewBox="0 0 581.33 121.77"><defs><style>.cls-1{fill:#2e3192;}</style></defs><path d="M255.38,243.91q-10.14,8-20.88,15.15c-2.61,1.74-5.5,3.51-8.63,3.28s-6.15-3.53-4.86-6.39a2.94,2.94,0,0,1-4.27-2.2,37.51,37.51,0,0,1-12.44,8.32c-2.13.87-4.76,1.49-6.6.09-1.58-1.19-1.93-3.4-2-5.37a33.86,33.86,0,0,1,5-18.52c-6.5.75-11.37,6-16.31,10.31-6.39,5.57-13.73,9.93-21.21,13.92a24.19,24.19,0,0,1-8.16,3.09c-2.9.37-6.12-.45-7.93-2.75s-1.54-6.2,1-7.7c3.42-2,8.22,1.15,11.68-.82a8.56,8.56,0,0,0,2.9-3.47c2.87-5.17,5.32-11.37,3.1-16.84a159.86,159.86,0,0,1-26.12,22.31c-4,2.71-8.2,5.3-12.94,6.21s-10.12-.18-13.26-3.84a29.15,29.15,0,0,1-2.8-4.36,5.3,5.3,0,0,1-.94-2.33,4.48,4.48,0,0,1,.35-1.65c4.44-12.67,13.77-25.2,28.66-23.47,2.24.26,4.78,1.15,5.44,3.3.84,2.71-1.81,5.13-4.14,6.73l-19.81,13.56c-1.17.8-2.46,1.8-2.56,3.22a3.22,3.22,0,0,0,2.82,3,8.52,8.52,0,0,0,4.42-.79c10.05-3.89,18.83-10.38,27.48-16.8,4.28-3.17,8.79-6.65,10.52-11.69.53-1.55.87-3.35,2.22-4.29a4,4,0,0,1,4.62.46,9.65,9.65,0,0,1,2.68,4.12A36,36,0,0,1,174,249.1l24.73-18.5c1.77-1.32,3.75-2.71,5.95-2.53,3.16.25,5.2,3.74,5.12,6.9s-1.64,6.06-3,8.92-2.49,6.08-1.7,9.14a49.29,49.29,0,0,0,15.61-10.13,3.16,3.16,0,0,1,1.84-1.09,2.05,2.05,0,0,1,1.87,2,5.89,5.89,0,0,1-.84,2.88c7.15-9.7,18.92-14.88,30.59-17.88a7.81,7.81,0,0,1,4.35-.25c1.41.45,2.56,2,2,3.38.7-2.25,4.46-1.69,5.45.45s.15,4.63-.7,6.82L256.7,261.4a4.55,4.55,0,1,1-1.82,8.85c-1-.33-2-1-3-.68a3.29,3.29,0,0,0-1.55,1.61A101.54,101.54,0,0,1,225,299.83c-2.57,2-6.07,3.89-8.84,2.22s-2.74-5.5-2.09-8.59A41.84,41.84,0,0,1,244,262.23c1.74-.45,3.6-.82,4.91-2.05a8.74,8.74,0,0,0,1.77-2.77A69.41,69.41,0,0,0,255.38,243.91Zm-37.09,48.65a1.3,1.3,0,0,0,.48,1.25,1.57,1.57,0,0,0,1.39-.12c10.38-4.44,17.36-14.22,23.16-23.91-1.46-.75-3.23-.12-4.72.57-9.39,4.32-18.81,10.8-20.27,21.84C218.31,292.31,218.3,292.44,218.29,292.56Zm15.81-38.65a41.1,41.1,0,0,0,3.92-2.12,56.39,56.39,0,0,0,6.95-5.36q4-3.44,7.9-7c.36-.33.76-.77.6-1.23-.21-.65-1.15-.54-1.78-.28-8.15,3.27-20.43,8.81-23.94,17.55a.75.75,0,0,0,0,.65c.18.31.65.21,1,.08C230.5,255.49,232.32,254.75,234.1,253.91Zm-112.57-11a2.31,2.31,0,0,0,1.34-.31c2.52-1,4.43-3,6.65-4.44s3.8-3.6,6.11-4.9c.21-.12.49-.22.43-.51s-.49-.43-.77-.37c-1.28.26-2.55.54-3.8.88-2,.55-3.5,2-5.26,3C123.53,237.71,122.65,240.26,121.53,242.89Z" transform="translate(-30.31 -180.92)"/><path d="M58,223.23l.11-.2c-7.58,1.92-15.71,3.83-23,1.14-1.92-.7-3.88-1.87-4.54-3.81s.1-3.89,1-5.64c3.11-6,8.22-10.87,13.93-14.55,14.53-9.37,35.8-16.57,52.58-9.32a30.11,30.11,0,0,1,14.75,13.55,27.24,27.24,0,0,1,2.11,19.82c-1.93,6.7-6.51,12.34-11.6,17.1a66.72,66.72,0,0,1-21.08,13.61,114,114,0,0,1-17,4.69c-7.26,1.61-14.65,3.22-22.06,2.54-2.22-.2-4.62-.72-6-2.47s-.85-5,1.34-5.41c1-.2,2.22.24,3.09-.36a3,3,0,0,0,.87-1.16Zm-9.2-2.38a58.87,58.87,0,0,0,5.9-.94,13.23,13.23,0,0,0,6.34-2.74A13.73,13.73,0,0,0,64.16,212c1.08-2.75,2-5.69,1.61-8.61a5,5,0,0,1,0-3c.67-1.33,2.59-1.45,4-.9a8.29,8.29,0,0,1,4.82,6.82,13.64,13.64,0,0,1-2.15,8.35A39.66,39.66,0,0,0,94.1,207.7c1.75-1.2,4.14-2.56,5.77-1.2,1.2,1,1.08,2.92.32,4.27-1.43,2.51-4.4,3.65-7.17,4.47a99.26,99.26,0,0,1-13.18,3c-3.53.55-7.35,1-9.91,3.52a16.41,16.41,0,0,0-3,4.66L54.14,253A71.78,71.78,0,0,0,83,245.51c8.56-4.28,16.5-10.61,20.49-19.31s3.15-20-3.72-26.66c-4.46-4.32-10.85-6.22-17.06-6.36-15.75-.34-32,6.8-42.06,18.95-1.75,2.12-3.34,5.27-1.64,7.43,1.19,1.5,3.37,1.66,5.29,1.6C45.84,221.12,47.33,221,48.83,220.85Z" transform="translate(-30.31 -180.92)"/><path d="M500.9,233.86v-.11a143.52,143.52,0,0,1-32.65,26.4c-2.23,1.32-4.51,2.58-6.86,3.67a16.9,16.9,0,0,1-8,2c-2.78-.18-5.62-1.77-6.52-4.4a5.75,5.75,0,0,1,5.11-7.26c2.47,0,5,1.58,7.29.75a6.43,6.43,0,0,0,2.72-2.25,23.86,23.86,0,0,0,4.68-18.93,114.71,114.71,0,0,1-17.39,15.41,3.11,3.11,0,0,1-2.47.84c-1.71-.44-1.63-3.42-.9-4.65,1.1-1.87,4.46-3.21,6.19-4.5,4.36-3.24,8.46-7.1,10.62-12.19,1.08-2.56,2.3-5.88,5.08-6,2.25-.09,3.83,2.15,4.75,4.2a33.76,33.76,0,0,1,1.78,22.41c8.58-5.6,15.69-13.13,22.72-20.59,4.51-4.79,9.17-9.83,11-16.15l-25.6,6.1c-2.93.7-5.93,1.43-8.42,3.12a4.27,4.27,0,0,1-1.61.83,2.52,2.52,0,0,1-2.33-1.22c-1.4-2.07-.45-5,1.41-6.71s4.39-2.33,6.81-2.94q16.14-4,32.39-7.62a6.83,6.83,0,0,0,2.27-.8,7.23,7.23,0,0,0,2-2.46,43.37,43.37,0,0,1,7.14-8.94c.75-.72,1.78-1.47,2.76-1.09a2.71,2.71,0,0,1,1.32,1.88,17.45,17.45,0,0,1,.35,8.64l14.78-3.41c.94-.22,2.12-.36,2.72.4a2.5,2.5,0,0,1-.13,2.51,24.13,24.13,0,0,1-4.59,6.76c-.7.72-1.65,1.44-2.59,1.12a11,11,0,0,1-1.33-.84,3.73,3.73,0,0,0-2-.18c-4.57.43-9.62,1.11-12.6,4.6a44.16,44.16,0,0,0-2.89,4.58c-1.87,2.84-4.65,5-6.63,7.75-3,4.22-3.93,9.55-4.76,14.68-.47,2.9-.94,5.89-.22,8.73a41.49,41.49,0,0,0,2.56,6c.86,2,1.42,4.28.71,6.33s-3.13,3.61-5.12,2.75a5.62,5.62,0,0,1-2.62-3.26C498.5,251.71,499.66,242.55,500.9,233.86Z" transform="translate(-30.31 -180.92)"/><path d="M396.83,214.85l12-2.56a9.28,9.28,0,0,1,5.14-.1,5.08,5.08,0,0,1,2.8,6.17,5.85,5.85,0,0,1-5.84,3.76c-1.9-.13-3.62-1.11-5.45-1.67-5.84-1.76-12.24,1.22-16.43,5.66s-6.71,10.14-9.57,15.53c-4.77,9-10.68,17.46-14.43,26.94-1.39,3.52-2.48,7.4-1.47,11a1.87,1.87,0,0,1,2.57-.48,2.76,2.76,0,0,1,1.09,2.57,4.37,4.37,0,0,1-3.19,3.58,6.6,6.6,0,0,1-4.92-.7c-4.1-2.23-5.87-7.4-5.42-12s2.65-8.9,4.82-13l6.3-12L376,226.39c-7.28,2.71-14.59,5.43-21.42,9.12-2.48,1.33-5,2.87-6.52,5.2-.86,1.28-1.65,2.94-3.18,3.13s-2.78-1.36-3-2.88c-.42-3.45,2.83-6.15,5.8-8a109.16,109.16,0,0,1,19.71-9.45c5.3-1.9,10.86-3.45,15.38-6.8,3.75-2.77,6.55-6.59,9.4-10.27a232.07,232.07,0,0,1,16.22-18.8c-5.58-.83-11.18,1.1-16.38,3.28a152,152,0,0,0-15.85,7.78c-2.92,1.64-6,3.61-7.17,6.75a7.3,7.3,0,0,1-1.12,2.45c-1.31,1.46-4,.75-5-.94-3.52-5.93,4.64-10.07,8.7-12.22,11.52-6.11,23.41-12.33,36.38-13.7a14.38,14.38,0,0,1,5.92.31,6,6,0,0,1,4.1,4c.64,2.67-1.19,5.24-2.91,7.38Q406.11,203.91,396.83,214.85Z" transform="translate(-30.31 -180.92)"/><path d="M560.94,242.64l4.59-3.36L575.4,232l7.68-5.64c2.13-1.56,5-3.17,7.22-1.7a6.62,6.62,0,0,1,2.18,3.61l1.72,5.17a9.59,9.59,0,0,1,.74,4.14c-.27,2.31-2.1,4.06-3.67,5.77a38.54,38.54,0,0,0-7.89,12.92c2.19.87,4.66.06,6.82-.89a50.47,50.47,0,0,0,16.88-12.14,5.89,5.89,0,0,1,2-1.66,1.86,1.86,0,0,1,2.32.6,2,2,0,0,1,.23,1c.12,2.73-1.9,5-3.87,6.94a99,99,0,0,1-13.25,10.75c-3.83,2.6-8.66,5-12.88,3.11-4.73-2.11-5.88-8.57-4.31-13.51s5-9,7.24-13.7c.42-.87.52-2.29-.43-2.42a1.57,1.57,0,0,0-.94.3c-10,5.68-18.6,13.39-27.85,20.19-3.82,2.81-7.83,5.51-12.35,6.92s-9.71,1.38-13.78-1.05c-11.46-6.87-1.62-22,5.48-28.25,4.87-4.29,11.61-6.79,18-5.48,2.28.47,4.78,1.82,5.08,4.13.32,2.54-2.13,4.47-4.28,5.86q-10.62,6.86-20.7,14.5c-1,.77-2.15,1.83-1.92,3.08.27,1.49,2.19,2,3.7,1.88,4.64-.24,9-2.4,13-4.77C552.14,248.89,556.57,245.8,560.94,242.64Zm-25.54.05a6,6,0,0,0,3.06-1.26,86.3,86.3,0,0,0,11-8.9c-.48.46-3.37.46-4.17.72a16,16,0,0,0-4.61,2.37C538.42,237.28,536,239.93,535.4,242.69Z" transform="translate(-30.31 -180.92)"/><path d="M282.82,240.49l-10.46,6.59c-.83.52-2,1-2.68.26a1.91,1.91,0,0,1-.26-1.54c.95-6.34,9.11-10,13.76-13.46a8.61,8.61,0,0,1,2.26-1.33c2.78-.93,5.8,1.33,6.79,4.08s.49,5.79,0,8.67a79.34,79.34,0,0,1,14.57-10.31c2.33-1.29,5-2.5,7.57-2,3.09.61,5.28,3.58,5.88,6.67s-.07,6.27-.91,9.3a10.6,10.6,0,0,0-.6,4.23,3.36,3.36,0,0,0,2.67,3c1.47.13,2.7-1,3.73-2.12A73.1,73.1,0,0,1,337,242.63a1.82,1.82,0,0,1,.95-.4c.74,0,1.21.82,1.32,1.55.39,2.76-1.74,5.17-3.74,7.09q-4.95,4.74-10.23,9.11a12.18,12.18,0,0,1-5.38,3.06c-4.49.82-8.49-3.45-9.59-7.88s-.29-9.08-.52-13.63c0-.55-.13-1.2-.63-1.44a1.58,1.58,0,0,0-1.36.25,67.45,67.45,0,0,0-8.23,5.15c-6.86,5-12.74,11.3-19.77,16.06a5,5,0,0,1-1.72.87c-2.36.56-4.33-2.15-4.42-4.57C273.43,251.2,281,246.88,282.82,240.49Z" transform="translate(-30.31 -180.92)"/><path d="M409.7,243.14l-4.57,3.6a2.62,2.62,0,0,1-1.1.59c-1.19.2-2-1.36-1.72-2.55,2.08-9.89,17.78-16.05,26.48-17.88,3.28-.7,7.1-.9,9.56,1.37a11.84,11.84,0,0,1,2.66,4.6,29.8,29.8,0,0,1,2.36,8.42A18.08,18.08,0,0,1,439.72,253a31,31,0,0,1-9.39,8.19c-5,3-11.48,5.07-16.56,2.18a12.41,12.41,0,0,1-5.77-9.29,22.39,22.39,0,0,1,1.82-11.07Zm26.17-9.26c-1.8,0-3.1,1.83-4.86,2.22-.75.17-1.53.06-2.27.2a6.21,6.21,0,0,0-2.49,1.3c-5.78,4.4-10.45,11.4-9.89,18.88a5.11,5.11,0,0,0,.65,2.41,3.63,3.63,0,0,0,3.41,1.37,8.66,8.66,0,0,0,3.55-1.44,29.63,29.63,0,0,0,11-12.23c.65-1.34,1.19-3,.51-4.28-.51-1-1.65-1.63-2.16-2.66a3.56,3.56,0,0,1,.3-3.27A10.66,10.66,0,0,1,435.87,233.88Z" transform="translate(-30.31 -180.92)"/><path d="M215.67,213.23a4.83,4.83,0,0,1-3.83-3,7.69,7.69,0,0,1-.47-4.93,2.45,2.45,0,0,1,1.87-2c.46-.12.93-.24,1.38-.39,1.85-.58,2.31-.35,3.62,1.07,2,2.13,1.72,4.52.9,6.93C218.63,212.42,217.26,213,215.67,213.23Z" transform="translate(-30.31 -180.92)"/><path class="cls-1" d="M255.38,243.91q-10.14,8-20.88,15.15c-2.61,1.74-5.5,3.51-8.63,3.28s-6.15-3.53-4.86-6.39a2.94,2.94,0,0,1-4.27-2.2,37.51,37.51,0,0,1-12.44,8.32c-2.13.87-4.76,1.49-6.6.09-1.58-1.19-1.93-3.4-2-5.37a33.86,33.86,0,0,1,5-18.52c-6.5.75-11.37,6-16.31,10.31-6.39,5.57-13.73,9.93-21.21,13.92a24.19,24.19,0,0,1-8.16,3.09c-2.9.37-6.12-.45-7.93-2.75s-1.54-6.2,1-7.7c3.42-2,8.22,1.15,11.68-.82a8.56,8.56,0,0,0,2.9-3.47c2.87-5.17,5.32-11.37,3.1-16.84a159.86,159.86,0,0,1-26.12,22.31c-4,2.71-8.2,5.3-12.94,6.21s-10.12-.18-13.26-3.84a29.15,29.15,0,0,1-2.8-4.36,5.3,5.3,0,0,1-.94-2.33,4.48,4.48,0,0,1,.35-1.65c4.44-12.67,13.77-25.2,28.66-23.47,2.24.26,4.78,1.15,5.44,3.3.84,2.71-1.81,5.13-4.14,6.73l-19.81,13.56c-1.17.8-2.46,1.8-2.56,3.22a3.22,3.22,0,0,0,2.82,3,8.52,8.52,0,0,0,4.42-.79c10.05-3.89,18.83-10.38,27.48-16.8,4.28-3.17,8.79-6.65,10.52-11.69.53-1.55.87-3.35,2.22-4.29a4,4,0,0,1,4.62.46,9.65,9.65,0,0,1,2.68,4.12A36,36,0,0,1,174,249.1l24.73-18.5c1.77-1.32,3.75-2.71,5.95-2.53,3.16.25,5.2,3.74,5.12,6.9s-1.64,6.06-3,8.92-2.49,6.08-1.7,9.14a49.29,49.29,0,0,0,15.61-10.13,3.16,3.16,0,0,1,1.84-1.09,2.05,2.05,0,0,1,1.87,2,5.89,5.89,0,0,1-.84,2.88c7.15-9.7,18.92-14.88,30.59-17.88a7.81,7.81,0,0,1,4.35-.25c1.41.45,2.56,2,2,3.38.7-2.25,4.46-1.69,5.45.45s.15,4.63-.7,6.82L256.7,261.4a4.55,4.55,0,1,1-1.82,8.85c-1-.33-2-1-3-.68a3.29,3.29,0,0,0-1.55,1.61A101.54,101.54,0,0,1,225,299.83c-2.57,2-6.07,3.89-8.84,2.22s-2.74-5.5-2.09-8.59A41.84,41.84,0,0,1,244,262.23c1.74-.45,3.6-.82,4.91-2.05a8.74,8.74,0,0,0,1.77-2.77A69.41,69.41,0,0,0,255.38,243.91Zm-37.09,48.65a1.3,1.3,0,0,0,.48,1.25,1.57,1.57,0,0,0,1.39-.12c10.38-4.44,17.36-14.22,23.16-23.91-1.46-.75-3.23-.12-4.72.57-9.39,4.32-18.81,10.8-20.27,21.84C218.31,292.31,218.3,292.44,218.29,292.56Zm15.81-38.65a41.1,41.1,0,0,0,3.92-2.12,56.39,56.39,0,0,0,6.95-5.36q4-3.44,7.9-7c.36-.33.76-.77.6-1.23-.21-.65-1.15-.54-1.78-.28-8.15,3.27-20.43,8.81-23.94,17.55a.75.75,0,0,0,0,.65c.18.31.65.21,1,.08C230.5,255.49,232.32,254.75,234.1,253.91Zm-112.57-11a2.31,2.31,0,0,0,1.34-.31c2.52-1,4.43-3,6.65-4.44s3.8-3.6,6.11-4.9c.21-.12.49-.22.43-.51s-.49-.43-.77-.37c-1.28.26-2.55.54-3.8.88-2,.55-3.5,2-5.26,3C123.53,237.71,122.65,240.26,121.53,242.89Z" transform="translate(-30.31 -180.92)"/><path class="cls-1" d="M58,223.23l.11-.2c-7.58,1.92-15.71,3.83-23,1.14-1.92-.7-3.88-1.87-4.54-3.81s.1-3.89,1-5.64c3.11-6,8.22-10.87,13.93-14.55,14.53-9.37,35.8-16.57,52.58-9.32a30.11,30.11,0,0,1,14.75,13.55,27.24,27.24,0,0,1,2.11,19.82c-1.93,6.7-6.51,12.34-11.6,17.1a66.72,66.72,0,0,1-21.08,13.61,114,114,0,0,1-17,4.69c-7.26,1.61-14.65,3.22-22.06,2.54-2.22-.2-4.62-.72-6-2.47s-.85-5,1.34-5.41c1-.2,2.22.24,3.09-.36a3,3,0,0,0,.87-1.16Zm-9.2-2.38a58.87,58.87,0,0,0,5.9-.94,13.23,13.23,0,0,0,6.34-2.74A13.73,13.73,0,0,0,64.16,212c1.08-2.75,2-5.69,1.61-8.61a5,5,0,0,1,0-3c.67-1.33,2.59-1.45,4-.9a8.29,8.29,0,0,1,4.82,6.82,13.64,13.64,0,0,1-2.15,8.35A39.66,39.66,0,0,0,94.1,207.7c1.75-1.2,4.14-2.56,5.77-1.2,1.2,1,1.08,2.92.32,4.27-1.43,2.51-4.4,3.65-7.17,4.47a99.26,99.26,0,0,1-13.18,3c-3.53.55-7.35,1-9.91,3.52a16.41,16.41,0,0,0-3,4.66L54.14,253A71.78,71.78,0,0,0,83,245.51c8.56-4.28,16.5-10.61,20.49-19.31s3.15-20-3.72-26.66c-4.46-4.32-10.85-6.22-17.06-6.36-15.75-.34-32,6.8-42.06,18.95-1.75,2.12-3.34,5.27-1.64,7.43,1.19,1.5,3.37,1.66,5.29,1.6C45.84,221.12,47.33,221,48.83,220.85Z" transform="translate(-30.31 -180.92)"/><path class="cls-1" d="M500.9,233.86v-.11a143.52,143.52,0,0,1-32.65,26.4c-2.23,1.32-4.51,2.58-6.86,3.67a16.9,16.9,0,0,1-8,2c-2.78-.18-5.62-1.77-6.52-4.4a5.75,5.75,0,0,1,5.11-7.26c2.47,0,5,1.58,7.29.75a6.43,6.43,0,0,0,2.72-2.25,23.86,23.86,0,0,0,4.68-18.93,114.71,114.71,0,0,1-17.39,15.41,3.11,3.11,0,0,1-2.47.84c-1.71-.44-1.63-3.42-.9-4.65,1.1-1.87,4.46-3.21,6.19-4.5,4.36-3.24,8.46-7.1,10.62-12.19,1.08-2.56,2.3-5.88,5.08-6,2.25-.09,3.83,2.15,4.75,4.2a33.76,33.76,0,0,1,1.78,22.41c8.58-5.6,15.69-13.13,22.72-20.59,4.51-4.79,9.17-9.83,11-16.15l-25.6,6.1c-2.93.7-5.93,1.43-8.42,3.12a4.27,4.27,0,0,1-1.61.83,2.52,2.52,0,0,1-2.33-1.22c-1.4-2.07-.45-5,1.41-6.71s4.39-2.33,6.81-2.94q16.14-4,32.39-7.62a6.83,6.83,0,0,0,2.27-.8,7.23,7.23,0,0,0,2-2.46,43.37,43.37,0,0,1,7.14-8.94c.75-.72,1.78-1.47,2.76-1.09a2.71,2.71,0,0,1,1.32,1.88,17.45,17.45,0,0,1,.35,8.64l14.78-3.41c.94-.22,2.12-.36,2.72.4a2.5,2.5,0,0,1-.13,2.51,24.13,24.13,0,0,1-4.59,6.76c-.7.72-1.65,1.44-2.59,1.12a11,11,0,0,1-1.33-.84,3.73,3.73,0,0,0-2-.18c-4.57.43-9.62,1.11-12.6,4.6a44.16,44.16,0,0,0-2.89,4.58c-1.87,2.84-4.65,5-6.63,7.75-3,4.22-3.93,9.55-4.76,14.68-.47,2.9-.94,5.89-.22,8.73a41.49,41.49,0,0,0,2.56,6c.86,2,1.42,4.28.71,6.33s-3.13,3.61-5.12,2.75a5.62,5.62,0,0,1-2.62-3.26C498.5,251.71,499.66,242.55,500.9,233.86Z" transform="translate(-30.31 -180.92)"/><path class="cls-1" d="M396.83,214.85l12-2.56a9.28,9.28,0,0,1,5.14-.1,5.08,5.08,0,0,1,2.8,6.17,5.85,5.85,0,0,1-5.84,3.76c-1.9-.13-3.62-1.11-5.45-1.67-5.84-1.76-12.24,1.22-16.43,5.66s-6.71,10.14-9.57,15.53c-4.77,9-10.68,17.46-14.43,26.94-1.39,3.52-2.48,7.4-1.47,11a1.87,1.87,0,0,1,2.57-.48,2.76,2.76,0,0,1,1.09,2.57,4.37,4.37,0,0,1-3.19,3.58,6.6,6.6,0,0,1-4.92-.7c-4.1-2.23-5.87-7.4-5.42-12s2.65-8.9,4.82-13l6.3-12L376,226.39c-7.28,2.71-14.59,5.43-21.42,9.12-2.48,1.33-5,2.87-6.52,5.2-.86,1.28-1.65,2.94-3.18,3.13s-2.78-1.36-3-2.88c-.42-3.45,2.83-6.15,5.8-8a109.16,109.16,0,0,1,19.71-9.45c5.3-1.9,10.86-3.45,15.38-6.8,3.75-2.77,6.55-6.59,9.4-10.27a232.07,232.07,0,0,1,16.22-18.8c-5.58-.83-11.18,1.1-16.38,3.28a152,152,0,0,0-15.85,7.78c-2.92,1.64-6,3.61-7.17,6.75a7.3,7.3,0,0,1-1.12,2.45c-1.31,1.46-4,.75-5-.94-3.52-5.93,4.64-10.07,8.7-12.22,11.52-6.11,23.41-12.33,36.38-13.7a14.38,14.38,0,0,1,5.92.31,6,6,0,0,1,4.1,4c.64,2.67-1.19,5.24-2.91,7.38Q406.11,203.91,396.83,214.85Z" transform="translate(-30.31 -180.92)"/><path class="cls-1" d="M560.94,242.64l4.59-3.36L575.4,232l7.68-5.64c2.13-1.56,5-3.17,7.22-1.7a6.62,6.62,0,0,1,2.18,3.61l1.72,5.17a9.59,9.59,0,0,1,.74,4.14c-.27,2.31-2.1,4.06-3.67,5.77a38.54,38.54,0,0,0-7.89,12.92c2.19.87,4.66.06,6.82-.89a50.47,50.47,0,0,0,16.88-12.14,5.89,5.89,0,0,1,2-1.66,1.86,1.86,0,0,1,2.32.6,2,2,0,0,1,.23,1c.12,2.73-1.9,5-3.87,6.94a99,99,0,0,1-13.25,10.75c-3.83,2.6-8.66,5-12.88,3.11-4.73-2.11-5.88-8.57-4.31-13.51s5-9,7.24-13.7c.42-.87.52-2.29-.43-2.42a1.57,1.57,0,0,0-.94.3c-10,5.68-18.6,13.39-27.85,20.19-3.82,2.81-7.83,5.51-12.35,6.92s-9.71,1.38-13.78-1.05c-11.46-6.87-1.62-22,5.48-28.25,4.87-4.29,11.61-6.79,18-5.48,2.28.47,4.78,1.82,5.08,4.13.32,2.54-2.13,4.47-4.28,5.86q-10.62,6.86-20.7,14.5c-1,.77-2.15,1.83-1.92,3.08.27,1.49,2.19,2,3.7,1.88,4.64-.24,9-2.4,13-4.77C552.14,248.89,556.57,245.8,560.94,242.64Zm-25.54.05a6,6,0,0,0,3.06-1.26,86.3,86.3,0,0,0,11-8.9c-.48.46-3.37.46-4.17.72a16,16,0,0,0-4.61,2.37C538.42,237.28,536,239.93,535.4,242.69Z" transform="translate(-30.31 -180.92)"/><path class="cls-1" d="M282.82,240.49l-10.46,6.59c-.83.52-2,1-2.68.26a1.91,1.91,0,0,1-.26-1.54c.95-6.34,9.11-10,13.76-13.46a8.61,8.61,0,0,1,2.26-1.33c2.78-.93,5.8,1.33,6.79,4.08s.49,5.79,0,8.67a79.34,79.34,0,0,1,14.57-10.31c2.33-1.29,5-2.5,7.57-2,3.09.61,5.28,3.58,5.88,6.67s-.07,6.27-.91,9.3a10.6,10.6,0,0,0-.6,4.23,3.36,3.36,0,0,0,2.67,3c1.47.13,2.7-1,3.73-2.12A73.1,73.1,0,0,1,337,242.63a1.82,1.82,0,0,1,.95-.4c.74,0,1.21.82,1.32,1.55.39,2.76-1.74,5.17-3.74,7.09q-4.95,4.74-10.23,9.11a12.18,12.18,0,0,1-5.38,3.06c-4.49.82-8.49-3.45-9.59-7.88s-.29-9.08-.52-13.63c0-.55-.13-1.2-.63-1.44a1.58,1.58,0,0,0-1.36.25,67.45,67.45,0,0,0-8.23,5.15c-6.86,5-12.74,11.3-19.77,16.06a5,5,0,0,1-1.72.87c-2.36.56-4.33-2.15-4.42-4.57C273.43,251.2,281,246.88,282.82,240.49Z" transform="translate(-30.31 -180.92)"/><path class="cls-1" d="M409.7,243.14l-4.57,3.6a2.62,2.62,0,0,1-1.1.59c-1.19.2-2-1.36-1.72-2.55,2.08-9.89,17.78-16.05,26.48-17.88,3.28-.7,7.1-.9,9.56,1.37a11.84,11.84,0,0,1,2.66,4.6,29.8,29.8,0,0,1,2.36,8.42A18.08,18.08,0,0,1,439.72,253a31,31,0,0,1-9.39,8.19c-5,3-11.48,5.07-16.56,2.18a12.41,12.41,0,0,1-5.77-9.29,22.39,22.39,0,0,1,1.82-11.07Zm26.17-9.26c-1.8,0-3.1,1.83-4.86,2.22-.75.17-1.53.06-2.27.2a6.21,6.21,0,0,0-2.49,1.3c-5.78,4.4-10.45,11.4-9.89,18.88a5.11,5.11,0,0,0,.65,2.41,3.63,3.63,0,0,0,3.41,1.37,8.66,8.66,0,0,0,3.55-1.44,29.63,29.63,0,0,0,11-12.23c.65-1.34,1.19-3,.51-4.28-.51-1-1.65-1.63-2.16-2.66a3.56,3.56,0,0,1,.3-3.27A10.66,10.66,0,0,1,435.87,233.88Z" transform="translate(-30.31 -180.92)"/><path class="cls-1" d="M215.67,213.23a4.83,4.83,0,0,1-3.83-3,7.69,7.69,0,0,1-.47-4.93,2.45,2.45,0,0,1,1.87-2c.46-.12.93-.24,1.38-.39,1.85-.58,2.31-.35,3.62,1.07,2,2.13,1.72,4.52.9,6.93C218.63,212.42,217.26,213,215.67,213.23Z" transform="translate(-30.31 -180.92)"/></svg>